<?xml version="1.0" standalone="no"?>
<!DOCTYPE svg PUBLIC "-//W3C//DTD SVG 20010904//EN"
 "http://www.w3.org/TR/2001/REC-SVG-20010904/DTD/svg10.dtd">
<svg version="1.0" xmlns="http://www.w3.org/2000/svg"
 width="546.000000pt" height="217.000000pt" viewBox="0 0 546.000000 217.000000"
 preserveAspectRatio="xMidYMid meet">

<g transform="translate(0.000000,217.000000) scale(0.100000,-0.100000)"
fill="#000000" stroke="none">
<path d="M555 1853 c-138 -17 -330 -62 -432 -100 l-43 -16 0 -469 0 -470 32
-42 c18 -22 55 -68 83 -100 l50 -59 5 509 5 509 60 16 c33 9 72 19 88 23 l27
6 0 -187 1 -188 78 -47 c43 -27 81 -48 83 -48 3 0 8 76 12 168 7 169 -2 503
-13 501 -3 -1 -19 -4 -36 -6z"/>
<path d="M692 1495 l3 -367 217 -131 216 -132 -18 -25 c-29 -40 -241 -260
-251 -260 -5 0 -9 78 -9 175 l0 175 -77 50 -78 49 -3 -376 c-1 -207 0 -378 2
-381 7 -6 116 61 226 140 127 90 256 211 330 309 l60 80 0 92 0 92 -230 130
-230 129 0 218 c0 129 4 218 9 218 17 0 154 -30 214 -47 l57 -16 0 -217 0
-218 83 -47 c45 -26 85 -50 90 -52 4 -2 7 143 7 322 l0 326 -53 23 c-111 50
-291 88 -470 101 l-97 7 2 -367z"/>
<path d="M2518 1637 c-84 -24 -146 -85 -168 -166 -24 -91 15 -198 90 -240 20
-11 93 -36 162 -55 69 -19 135 -39 147 -45 28 -15 41 -42 41 -84 0 -129 -288
-143 -340 -17 -7 16 -15 30 -19 30 -12 -1 -123 -29 -126 -32 -8 -8 34 -85 61
-112 55 -55 127 -80 244 -84 120 -4 186 14 252 68 74 61 101 184 59 275 -35
77 -88 107 -266 151 -121 30 -165 59 -165 109 0 68 51 99 153 93 65 -4 71 -6
104 -42 l35 -38 59 12 c33 7 62 17 65 21 7 12 -20 60 -53 91 -68 65 -226 95
-335 65z"/>
<path d="M1610 1240 l0 -400 75 0 75 0 0 165 0 165 99 0 99 0 40 -102 c21 -57
49 -131 62 -165 l23 -63 73 0 c41 0 74 2 74 5 0 3 -29 80 -65 171 -36 91 -65
170 -65 175 0 5 7 9 15 9 26 0 100 82 113 126 28 96 -2 206 -72 259 -57 44
-127 55 -348 55 l-197 0 -1 -400z m420 265 c41 -21 64 -68 57 -118 -11 -80
-69 -107 -231 -107 l-96 0 0 120 0 120 120 0 c89 0 129 -4 150 -15z"/>
<path d="M3060 1239 l-1 -401 193 4 c188 3 195 4 255 32 261 120 286 558 41
712 -66 42 -137 54 -319 54 l-168 0 -1 -401z m380 261 c73 -37 120 -137 120
-254 0 -132 -44 -222 -131 -267 -30 -15 -59 -19 -129 -19 l-90 0 0 280 0 280
95 0 c76 0 104 -4 135 -20z"/>
<path d="M4525 1533 c-3 -32 -7 -67 -8 -78 -2 -15 -11 -21 -39 -23 l-38 -3 0
-49 c0 -48 1 -49 33 -52 l32 -3 5 -200 c4 -171 8 -205 23 -228 30 -46 75 -67
144 -67 88 0 93 3 93 61 l0 49 -39 0 c-24 0 -48 8 -65 21 l-26 20 0 175 0 174
60 0 60 0 0 50 0 50 -60 0 -60 0 0 80 0 80 -54 0 -55 0 -6 -57z"/>
<path d="M3966 1426 c-52 -19 -86 -45 -113 -86 -37 -53 -31 -67 29 -75 34 -5
53 -4 56 3 18 55 93 89 171 78 62 -8 91 -38 91 -91 l0 -42 -97 -5 c-201 -11
-293 -75 -293 -204 0 -104 79 -174 196 -174 76 1 135 27 166 74 28 43 38 45
38 9 0 -67 7 -73 77 -73 58 0 64 2 57 18 -4 9 -10 121 -13 249 -7 258 -8 265
-82 308 -45 26 -223 33 -283 11z m234 -337 c0 -98 -57 -159 -148 -159 -84 0
-127 55 -97 126 19 46 104 80 208 83 l37 1 0 -51z"/>
<path d="M5003 1426 c-62 -20 -103 -54 -125 -103 -11 -25 -18 -46 -16 -48 1
-2 28 -6 58 -10 51 -6 56 -5 65 16 26 58 126 86 198 56 39 -17 57 -47 57 -98
l0 -29 -69 0 c-91 0 -165 -15 -228 -46 -68 -33 -96 -77 -97 -153 0 -104 61
-172 165 -179 106 -8 165 18 209 91 l18 29 9 -53 8 -54 60 -3 60 -3 -3 223
c-2 123 -8 240 -13 260 -11 43 -55 88 -101 105 -44 15 -203 15 -255 -1z m237
-328 c-1 -59 -32 -123 -72 -148 -50 -31 -128 -28 -162 6 -30 31 -35 77 -10
112 29 41 106 68 202 71 l42 1 0 -42z"/>
<path d="M340 1129 l0 -99 45 -22 45 -22 0 -278 0 -277 53 -39 c60 -45 115
-78 119 -71 2 2 2 175 0 384 l-3 380 -129 72 -130 71 0 -99z"/>
<path d="M2255 753 c-31 -8 -55 -34 -55 -60 0 -14 -6 -23 -15 -23 -8 0 -15 -9
-15 -20 0 -11 7 -20 15 -20 12 0 15 -17 15 -90 0 -89 0 -90 25 -90 25 0 25 1
25 90 0 89 0 90 25 90 18 0 25 5 25 20 0 15 -7 20 -25 20 -35 0 -35 37 1 46
15 4 24 12 22 22 -3 18 -15 22 -43 15z"/>
<path d="M4100 703 c0 -37 -3 -44 -12 -35 -21 21 -72 14 -98 -13 -34 -36 -39
-127 -11 -172 27 -43 64 -52 102 -24 23 17 29 19 29 6 0 -9 9 -15 25 -15 l25
0 0 150 0 150 -30 0 c-29 0 -30 -1 -30 -47z m-16 -76 c26 -19 19 -114 -11
-134 -19 -13 -24 -12 -42 6 -28 28 -29 93 -1 121 23 23 30 24 54 7z"/>
<path d="M2417 700 c-4 -18 -13 -30 -22 -30 -8 0 -15 -9 -15 -20 0 -11 7 -20
15 -20 12 0 15 -15 15 -75 0 -62 4 -79 20 -95 21 -21 46 -25 69 -11 19 12 6
41 -19 41 -18 0 -20 6 -20 70 0 63 2 70 20 70 29 0 27 38 -2 42 -19 2 -22 8
-20 31 3 21 -1 27 -16 27 -14 0 -21 -9 -25 -30z"/>
<path d="M5297 723 c-4 -3 -7 -17 -7 -30 0 -14 -6 -23 -15 -23 -8 0 -15 -9
-15 -20 0 -11 7 -20 15 -20 12 0 15 -16 15 -80 0 -74 2 -81 25 -96 29 -19 75
-12 75 11 0 9 -11 20 -25 25 -23 9 -25 14 -25 75 0 58 2 65 20 65 13 0 20 7
20 20 0 13 -7 20 -20 20 -16 0 -20 7 -20 30 0 22 -5 30 -18 30 -10 0 -22 -3
-25 -7z"/>
<path d="M1660 673 c-32 -12 -50 -37 -50 -69 0 -39 24 -59 83 -69 43 -8 54
-20 37 -40 -16 -19 -54 -19 -73 -1 -14 14 -57 11 -57 -4 0 -15 37 -39 72 -45
113 -21 166 107 56 135 -51 12 -70 22 -76 38 -5 17 48 27 69 13 26 -16 49 -14
49 5 0 8 -16 22 -35 30 -36 15 -50 16 -75 7z"/>
<path d="M1953 673 c-12 -2 -34 -18 -48 -34 -49 -59 -25 -167 41 -189 72 -24
134 27 134 111 0 75 -56 125 -127 112z m67 -62 c25 -47 -1 -131 -40 -131 -23
0 -50 41 -50 76 0 51 15 74 50 74 19 0 33 -7 40 -19z"/>
<path d="M3037 670 c-35 -11 -57 -28 -57 -46 0 -19 34 -18 50 1 15 18 61 20
78 3 21 -21 14 -38 -15 -38 -47 0 -102 -20 -113 -40 -18 -33 -11 -67 17 -90
31 -24 74 -22 105 7 17 15 18 15 18 0 0 -11 8 -17 23 -17 23 0 23 1 19 98 -2
54 -9 102 -15 109 -17 16 -77 24 -110 13z m83 -130 c0 -27 -37 -62 -62 -58
-12 2 -26 11 -32 21 -9 15 -7 22 13 38 32 26 81 26 81 -1z"/>
<path d="M3360 660 c-24 -24 -30 -25 -30 -5 0 8 -9 15 -20 15 -19 0 -20 -7
-20 -110 l0 -110 25 0 c24 0 25 2 25 68 0 54 4 72 18 85 10 10 24 17 30 17 7
0 12 14 12 30 0 35 -12 38 -40 10z"/>
<path d="M3543 664 c-58 -29 -76 -119 -36 -180 32 -50 110 -54 153 -9 39 41 5
62 -37 23 -22 -21 -26 -21 -51 -7 -15 8 -28 25 -30 37 -3 21 0 22 74 22 l77 0
-6 37 c-12 71 -81 109 -144 77z m73 -32 c6 -4 13 -15 17 -24 6 -16 0 -18 -43
-18 -54 0 -55 1 -40 31 11 19 45 25 66 11z"/>
<path d="M4320 663 c-105 -54 -56 -236 59 -219 38 6 87 48 77 65 -11 17 -31
13 -51 -9 -10 -11 -26 -20 -36 -20 -23 0 -49 27 -49 51 0 17 8 19 69 19 39 0
73 5 76 10 9 15 -12 75 -34 94 -28 25 -72 29 -111 9z m88 -50 c14 -23 14 -23
-37 -23 -35 0 -51 4 -51 13 0 41 63 47 88 10z"/>
<path d="M4774 666 c-31 -14 -44 -33 -44 -64 0 -30 16 -44 71 -62 40 -13 54
-22 54 -36 0 -25 -50 -32 -74 -10 -10 9 -26 13 -39 10 -31 -9 -12 -39 33 -54
69 -23 135 9 135 65 0 39 -23 61 -71 70 -47 9 -63 20 -56 39 7 18 52 22 62 6
8 -13 55 -13 55 -1 0 13 -29 41 -43 41 -7 0 -21 2 -32 5 -11 3 -34 -1 -51 -9z"/>
<path d="M5043 670 c-12 -5 -26 -18 -32 -29 -28 -51 1 -94 69 -106 43 -7 63
-31 39 -46 -21 -13 -50 -11 -69 6 -18 16 -63 9 -57 -9 2 -6 20 -19 40 -30 68
-33 147 1 147 62 0 36 -24 57 -75 67 -51 9 -69 23 -54 41 13 16 55 19 64 4 7
-12 55 -13 55 -2 0 31 -85 60 -127 42z"/>
<path d="M2590 663 c0 -4 14 -54 32 -110 28 -92 34 -103 54 -103 24 0 32 18
50 108 8 41 20 41 28 0 18 -90 26 -108 50 -108 20 0 26 8 40 63 8 34 22 84 31
110 14 48 14 48 -7 45 -17 -2 -25 -15 -36 -58 -7 -30 -17 -59 -22 -64 -8 -8
-40 81 -40 111 0 7 -11 13 -25 13 -25 0 -27 -4 -51 -102 -10 -43 -19 -34 -39
37 -15 57 -20 65 -41 65 -13 0 -24 -3 -24 -7z"/>
</g>
</svg>
